<svg xmlns="http://www.w3.org/2000/svg" width="40" height="40" viewBox="0 0 40 40"><g><g><path fill="#e8eff1" d="M20 40c11.046 0 20-8.954 20-20S31.046 0 20 0 0 8.954 0 20s8.954 20 20 20z"/></g><g><path fill="#a3a9b1" d="M22.826 23.826C22.043 24.609 21.1 25 20 25s-2.043-.391-2.826-1.174C16.391 23.043 16 22.1 16 21s.391-2.043 1.174-2.826C17.957 17.391 18.9 17 20 17s2.043.391 2.826 1.174C23.609 18.957 24 19.9 24 21s-.391 2.043-1.174 2.826zM20 19c-.55 0-1.022.196-1.413.587A1.926 1.926 0 0 0 18 21c0 .551.196 1.022.587 1.413.391.391.862.587 1.413.587.55 0 1.022-.196 1.413-.587.391-.391.587-.862.587-1.413 0-.55-.196-1.022-.587-1.413A1.926 1.926 0 0 0 20 19zm6-4h-2s-1-2-2-2c-2.664-.666-2.664-.334-4 0-1.006 0-2 2-2 2h-2c-2 0-2 2-2 2v8s0 2 2 2h12c2 0 2-2 2-2v-8s0-2-2-2z"/></g></g></svg>