<svg xmlns="http://www.w3.org/2000/svg" width="18" height="16" viewBox="0 0 18 16"><g><g><path fill="#00d4ff" d="M4 12.22v.874C1.615 13.778 0 12 0 12V9.337C0 7.368 1.137 6.5 3.001 6.5c0 0 2.406-.006 2.488 0 .027.9 1.011 2 1.011 2S4 9.337 4 12.22zM1.377 2.79C1.377 1.248 2.56 0 4.017 0c1.458 0 2.64 1.249 2.64 2.79 0 .052-.005.104-.008.156a3.492 3.492 0 0 0-1.228 2.2c-.407.272-.887.431-1.404.431-1.458 0-2.64-1.248-2.64-2.788zM18 9.336V12s-.805 1.027-3 1.112v-.892c0-2.883-3.5-3.72-3.5-3.72s1.253-1.06 1.277-2H15c1.863 0 3 .869 3 2.837zm-4 2.879v2.568S11.908 16 9.424 16C6.94 16 5 15.155 5 15.155v-2.939c0-1.969 1.149-2.88 3.013-2.88h2.24c1.863 0 3.748.911 3.747 2.88zM6.492 5.667c0-1.54 1.183-2.788 2.64-2.788 1.459 0 2.64 1.248 2.64 2.788 0 1.54-1.181 2.788-2.64 2.788-1.457 0-2.64-1.248-2.64-2.788zM14.052 0c1.458 0 2.64 1.248 2.64 2.788 0 1.54-1.182 2.789-2.64 2.789-.4 0-.776-.097-1.116-.264a3.48 3.48 0 0 0-1.522-2.567C11.436 1.226 12.607 0 14.052 0z"/></g></g></svg>