<svg xmlns="http://www.w3.org/2000/svg" width="87" height="15" viewBox="0 0 87 15"><defs><clipPath id="i6mna"><path fill="#fff" d="M29.446 9.359a.54.54 0 0 0-.142.47l.854 5.144-4.408-2.417a.488.488 0 0 0-.47 0L20.887 15l.824-5.151a.545.545 0 0 0-.146-.467L18 5.747l4.92-.768a.503.503 0 0 0 .376-.29L25.48 0l2.216 4.677a.515.515 0 0 0 .38.29L33 5.704z"/></clipPath><clipPath id="i6mnb"><path fill="#fff" d="M47.446 9.359a.54.54 0 0 0-.142.47l.854 5.144-4.408-2.417a.488.488 0 0 0-.47 0L38.887 15l.824-5.151a.545.545 0 0 0-.146-.467L36 5.747l4.92-.768a.503.503 0 0 0 .376-.29L43.48 0l2.216 4.677a.515.515 0 0 0 .38.29L51 5.704z"/></clipPath><clipPath id="i6mnc"><path fill="#fff" d="M65.446 9.359a.54.54 0 0 0-.142.47l.854 5.144-4.408-2.417a.488.488 0 0 0-.47 0L56.887 15l.824-5.151a.545.545 0 0 0-.146-.467L54 5.747l4.92-.768a.503.503 0 0 0 .376-.29L61.48 0l2.216 4.677a.515.515 0 0 0 .38.29L69 5.704z"/></clipPath><clipPath id="i6mnd"><path fill="#fff" d="M83.446 9.359a.54.54 0 0 0-.142.47l.854 5.144-4.408-2.417a.488.488 0 0 0-.47 0L74.887 15l.824-5.151a.545.545 0 0 0-.146-.467L72 5.747l4.92-.768a.503.503 0 0 0 .376-.29L79.48 0l2.216 4.677a.515.515 0 0 0 .38.29L87 5.704z"/></clipPath></defs><g><g><path fill="#ff5d00" d="M11.446 9.359a.54.54 0 0 0-.142.47l.854 5.144-4.408-2.417a.488.488 0 0 0-.47 0L2.887 15l.824-5.151a.545.545 0 0 0-.146-.467L0 5.747l4.92-.768a.503.503 0 0 0 .376-.29L7.48 0l2.216 4.677a.515.515 0 0 0 .38.29L15 5.704z"/></g><g><path fill="#fff" d="M29.446 9.359a.54.54 0 0 0-.142.47l.854 5.144-4.408-2.417a.488.488 0 0 0-.47 0L20.887 15l.824-5.151a.545.545 0 0 0-.146-.467L18 5.747l4.92-.768a.503.503 0 0 0 .376-.29L25.48 0l2.216 4.677a.515.515 0 0 0 .38.29L33 5.704z"/><path fill="none" stroke="#ff5d00" stroke-miterlimit="50" stroke-width="4" d="M29.446 9.359a.54.54 0 0 0-.142.47l.854 5.144v0l-4.408-2.417a.488.488 0 0 0-.47 0L20.887 15v0l.824-5.151a.545.545 0 0 0-.146-.467L18 5.747v0l4.92-.768a.503.503 0 0 0 .376-.29L25.48 0v0l2.216 4.677a.515.515 0 0 0 .38.29L33 5.704v0z" clip-path="url(&quot;#i6mna&quot;)"/></g><g><path fill="#fff" d="M47.446 9.359a.54.54 0 0 0-.142.47l.854 5.144-4.408-2.417a.488.488 0 0 0-.47 0L38.887 15l.824-5.151a.545.545 0 0 0-.146-.467L36 5.747l4.92-.768a.503.503 0 0 0 .376-.29L43.48 0l2.216 4.677a.515.515 0 0 0 .38.29L51 5.704z"/><path fill="none" stroke="#ff5d00" stroke-miterlimit="50" stroke-width="4" d="M47.446 9.359a.54.54 0 0 0-.142.47l.854 5.144v0l-4.408-2.417a.488.488 0 0 0-.47 0L38.887 15v0l.824-5.151a.545.545 0 0 0-.146-.467L36 5.747v0l4.92-.768a.503.503 0 0 0 .376-.29L43.48 0v0l2.216 4.677a.515.515 0 0 0 .38.29L51 5.704v0z" clip-path="url(&quot;#i6mnb&quot;)"/></g><g><path fill="#fff" d="M65.446 9.359a.54.54 0 0 0-.142.47l.854 5.144-4.408-2.417a.488.488 0 0 0-.47 0L56.887 15l.824-5.151a.545.545 0 0 0-.146-.467L54 5.747l4.92-.768a.503.503 0 0 0 .376-.29L61.48 0l2.216 4.677a.515.515 0 0 0 .38.29L69 5.704z"/><path fill="none" stroke="#ff5d00" stroke-miterlimit="50" stroke-width="4" d="M65.446 9.359a.54.54 0 0 0-.142.47l.854 5.144v0l-4.408-2.417a.488.488 0 0 0-.47 0L56.887 15v0l.824-5.151a.545.545 0 0 0-.146-.467L54 5.747v0l4.92-.768a.503.503 0 0 0 .376-.29L61.48 0v0l2.216 4.677a.515.515 0 0 0 .38.29L69 5.704v0z" clip-path="url(&quot;#i6mnc&quot;)"/></g><g><path fill="#fff" d="M83.446 9.359a.54.54 0 0 0-.142.47l.854 5.144-4.408-2.417a.488.488 0 0 0-.47 0L74.887 15l.824-5.151a.545.545 0 0 0-.146-.467L72 5.747l4.92-.768a.503.503 0 0 0 .376-.29L79.48 0l2.216 4.677a.515.515 0 0 0 .38.29L87 5.704z"/><path fill="none" stroke="#ff5d00" stroke-miterlimit="50" stroke-width="4" d="M83.446 9.359a.54.54 0 0 0-.142.47l.854 5.144v0l-4.408-2.417a.488.488 0 0 0-.47 0L74.887 15v0l.824-5.151a.545.545 0 0 0-.146-.467L72 5.747v0l4.92-.768a.503.503 0 0 0 .376-.29L79.48 0v0l2.216 4.677a.515.515 0 0 0 .38.29L87 5.704v0z" clip-path="url(&quot;#i6mnd&quot;)"/></g></g></svg>